{
  "source": "C:\\Users\\Peter\\Desktop\\stuff\\MIUN\\quantitative_research\\video_compression\\videos\\BVI-HD\\BVI-HD_CDVL_videos\\ORIG\\TreeGrassFamily_1920x1080_30fps.mp4",
  "output": "C:\\Users\\Peter\\Desktop\\stuff\\MIUN\\quantitative_research\\video_compression\\compressed_videos\\BVI-HD\\vp9\\1.5\\TreeGrassFamily_1920x1080_30fps_vp9.webm",
  "codec": "vp9",
  "ok": "Input #0, mov,mp4,m4a,3gp,3g2,mj2, from 'C:\\Users\\Peter\\Desktop\\stuff\\MIUN\\quantitative_research\\video_compression\\videos\\BVI-HD\\BVI-HD_CDVL_videos\\ORIG\\TreeGrassFamily_1920x1080_30fps.mp4':\n  Metadata:\n    major_brand     : isom\n    minor_version   : 512\n    compatible_brands: isomiso2avc1mp41\n    encoder         : Lavf54.28.101\n  Duration: 00:00:05.00, start: 0.000000, bitrate: 331787 kb/s\n  Stream #0:0[0x1](und): Video: h264 (High 4:4:4 Predictive) (avc1 / 0x31637661), yuv420p(progressive), 1920x1080, 331784 kb/s, 30 fps, 30 tbr, 30 tbn (default)\n    Metadata:\n      handler_name    : VideoHandler\n      vendor_id       : [0][0][0][0]\n[out#0/webm @ 000001dd66260b00] Codec AVOption b:a (set bitrate (in bits/s)) has not been used for any stream. The most likely reason is either wrong type (e.g. a video option with no video streams) or that it is a private option of some decoder which was not actually used for any stream.\nStream mapping:\n  Stream #0:0 -> #0:0 (h264 (native) -> vp9 (libvpx-vp9))\nPress [q] to stop, [?] for help\n[libvpx-vp9 @ 000001dd66da00c0] v1.15.2-100-g40561f514\nOutput #0, webm, to 'C:\\Users\\Peter\\Desktop\\stuff\\MIUN\\quantitative_research\\video_compression\\compressed_videos\\BVI-HD\\vp9\\1.5\\TreeGrassFamily_1920x1080_30fps_vp9.webm':\n  Metadata:\n    major_brand     : isom\n    minor_version   : 512\n    compatible_brands: isomiso2avc1mp41\n    encoder         : Lavf62.3.100\n  Stream #0:0(und): Video: vp9, yuv420p(tv, progressive), 1920x1080, q=2-31, 1500 kb/s, 30 fps, 1k tbn (default)\n    Metadata:\n      encoder         : Lavc62.11.100 libvpx-vp9\n      handler_name    : VideoHandler\n      vendor_id       : [0][0][0][0]\n    Side data:\n      cpb: bitrate max/min/avg: 0/0/0 buffer size: 1500000 vbv_delay: N/A\nframe=    0 fps=0.0 q=0.0 size=       0KiB time=N/A bitrate=N/A speed=N/A elapsed=0:00:00.51    \nframe=    2 fps=1.9 q=57.0 size=       1KiB time=00:00:00.06 bitrate=  76.1kbits/s speed=0.0629x elapsed=0:00:01.05    \nframe=    6 fps=3.8 q=63.0 size=       1KiB time=00:00:00.20 bitrate=  25.4kbits/s speed=0.125x elapsed=0:00:01.59    \nframe=   10 fps=4.7 q=63.0 size=       1KiB time=00:00:00.33 bitrate=  15.2kbits/s speed=0.157x elapsed=0:00:02.11    \nframe=   14 fps=5.3 q=62.0 size=       1KiB time=00:00:00.46 bitrate=  10.9kbits/s speed=0.176x elapsed=0:00:02.64    \nframe=   19 fps=6.0 q=59.0 size=       1KiB time=00:00:00.63 bitrate=   8.0kbits/s speed= 0.2x elapsed=0:00:03.17    \nframe=   22 fps=5.9 q=59.0 size=       1KiB time=00:00:00.73 bitrate=   6.9kbits/s speed=0.198x elapsed=0:00:03.70    \nframe=   26 fps=6.2 q=63.0 size=       1KiB time=00:00:00.86 bitrate=   5.9kbits/s speed=0.205x elapsed=0:00:04.22    \nframe=   30 fps=6.3 q=63.0 size=       1KiB time=00:00:01.00 bitrate=   5.1kbits/s speed=0.211x elapsed=0:00:04.72    \nframe=   34 fps=6.5 q=62.0 size=       1KiB time=00:00:01.13 bitrate=   4.5kbits/s speed=0.216x elapsed=0:00:05.25    \nframe=   38 fps=6.6 q=63.0 size=       1KiB time=00:00:01.26 bitrate=   4.0kbits/s speed=0.219x elapsed=0:00:05.78    \nframe=   42 fps=6.7 q=62.0 size=       1KiB time=00:00:01.40 bitrate=   3.6kbits/s speed=0.222x elapsed=0:00:06.31    \nframe=   47 fps=6.9 q=61.0 size=       1KiB time=00:00:01.53 bitrate=   3.3kbits/s speed=0.224x elapsed=0:00:06.84    \nframe=   50 fps=6.8 q=63.0 size=       1KiB time=00:00:01.66 bitrate=   3.0kbits/s speed=0.226x elapsed=0:00:07.37    \nframe=   54 fps=6.8 q=63.0 size=       1KiB time=00:00:01.80 bitrate=   2.8kbits/s speed=0.228x elapsed=0:00:07.89    \nframe=   58 fps=6.9 q=63.0 size=       1KiB time=00:00:01.93 bitrate=   2.6kbits/s speed=0.23x elapsed=0:00:08.41    \nframe=   62 fps=6.9 q=61.0 size=       1KiB time=00:00:02.06 bitrate=   2.5kbits/s speed=0.231x elapsed=0:00:08.95    \nframe=   66 fps=7.0 q=63.0 size=       1KiB time=00:00:02.20 bitrate=   2.3kbits/s speed=0.232x elapsed=0:00:09.48    \nframe=   70 fps=7.0 q=63.0 size=       1KiB time=00:00:02.33 bitrate=   2.2kbits/s speed=0.233x elapsed=0:00:10.01    \nframe=   75 fps=7.1 q=60.0 size=       1KiB time=00:00:02.50 bitrate=   2.0kbits/s speed=0.237x elapsed=0:00:10.55    \nframe=   79 fps=7.1 q=61.0 size=       1KiB time=00:00:02.63 bitrate=   1.9kbits/s speed=0.237x elapsed=0:00:11.09    \nframe=   82 fps=7.1 q=62.0 size=       1KiB time=00:00:02.73 bitrate=   1.9kbits/s speed=0.235x elapsed=0:00:11.60    \nframe=   86 fps=7.1 q=63.0 size=       1KiB time=00:00:02.86 bitrate=   1.8kbits/s speed=0.237x elapsed=0:00:12.11    \nframe=   90 fps=7.1 q=63.0 size=       1KiB time=00:00:03.00 bitrate=   1.7kbits/s speed=0.237x elapsed=0:00:12.64    \nframe=   94 fps=7.1 q=63.0 size=       1KiB time=00:00:03.13 bitrate=   1.6kbits/s speed=0.238x elapsed=0:00:13.18    \nframe=   99 fps=7.2 q=62.0 size=       1KiB time=00:00:03.30 bitrate=   1.5kbits/s speed=0.241x elapsed=0:00:13.69    \nframe=  102 fps=7.2 q=62.0 size=       1KiB time=00:00:03.40 bitrate=   1.5kbits/s speed=0.239x elapsed=0:00:14.22    \nframe=  107 fps=7.3 q=62.0 size=       1KiB time=00:00:03.56 bitrate=   1.4kbits/s speed=0.242x elapsed=0:00:14.74    \nframe=  110 fps=7.2 q=63.0 size=       1KiB time=00:00:03.66 bitrate=   1.4kbits/s speed=0.24x elapsed=0:00:15.27    \nframe=  115 fps=7.3 q=62.0 size=       1KiB time=00:00:03.83 bitrate=   1.3kbits/s speed=0.243x elapsed=0:00:15.78    \nframe=  120 fps=7.4 q=63.0 size=       1KiB time=00:00:04.00 bitrate=   1.3kbits/s speed=0.245x elapsed=0:00:16.32    \nframe=  124 fps=7.4 q=63.0 size=       1KiB time=00:00:04.13 bitrate=   1.2kbits/s speed=0.245x elapsed=0:00:16.85    \nframe=  126 fps=7.3 q=63.0 size=       1KiB time=00:00:04.20 bitrate=   1.2kbits/s speed=0.242x elapsed=0:00:17.37    \nframe=  126 fps=7.0 q=63.0 size=       1KiB time=00:00:04.20 bitrate=   1.2kbits/s speed=0.235x elapsed=0:00:17.90    \nframe=  126 fps=6.8 q=63.0 size=       1KiB time=00:00:04.20 bitrate=   1.2kbits/s speed=0.228x elapsed=0:00:18.42    \nframe=  126 fps=6.7 q=63.0 size=       1KiB time=00:00:04.20 bitrate=   1.2kbits/s speed=0.222x elapsed=0:00:18.94    \nframe=  126 fps=6.5 q=63.0 size=       1KiB time=00:00:04.20 bitrate=   1.2kbits/s speed=0.216x elapsed=0:00:19.46    \nframe=  126 fps=6.3 q=63.0 size=       1KiB time=00:00:04.20 bitrate=   1.2kbits/s speed=0.21x elapsed=0:00:19.98    \n[out#0/webm @ 000001dd66260b00] video:1197KiB audio:0KiB subtitle:0KiB other streams:0KiB global headers:0KiB muxing overhead: 0.143705%\nframe=  150 fps=7.5 q=62.0 Lsize=    1199KiB time=00:00:05.00 bitrate=1964.6kbits/s speed=0.25x elapsed=0:00:20.03    \n",
  "seconds": 20.331328868865967,
  "probe_out": {}
}